<svg width="320" height="126" viewBox="0 0 320 126" fill="none" xmlns="http://www.w3.org/2000/svg">
<rect width="320" height="126" fill="white"/>
<g clip-path="url(#clip0_92_24)">
<path d="M237.288 33.3178L276.25 25.1314C276.705 25.0356 277.166 24.969 277.63 24.9318C277.251 23.8898 276.665 22.9353 275.908 22.1258C275.15 21.3163 274.236 20.6686 273.222 20.2218C272.207 19.7749 271.112 19.5382 270.004 19.5259C268.895 19.5135 267.795 19.7258 266.771 20.1499L235.878 32.353L235.841 32.3607C233.911 33.1679 232.361 34.6817 231.509 36.5929C233.048 34.9262 235.068 33.7813 237.288 33.3178ZM276.864 28.0535L237.902 36.2399C235.837 36.6763 234.029 37.9142 232.875 39.682C231.721 41.4498 231.315 43.6032 231.747 45.6696L236.659 69.0468C237.095 71.1123 238.333 72.9203 240.101 74.0743C241.869 75.2282 244.022 75.6337 246.089 75.2019L285.051 67.0155C287.116 66.5791 288.924 65.3412 290.078 63.5734C291.232 61.8056 291.638 59.6522 291.206 57.5858L286.294 34.2086C285.858 32.1431 284.62 30.3351 282.852 29.1811C281.084 28.0272 278.931 27.6217 276.864 28.0535ZM275.993 52.6459C275.222 52.8078 274.421 52.7375 273.69 52.444C272.959 52.1505 272.332 51.647 271.888 50.997C271.443 50.347 271.201 49.5798 271.193 48.7925C271.185 48.0051 271.41 47.2329 271.84 46.5735C272.271 45.9141 272.887 45.3972 273.611 45.088C274.335 44.7789 275.135 44.6915 275.909 44.8368C276.683 44.9821 277.396 45.3536 277.959 45.9044C278.522 46.4551 278.908 47.1604 279.07 47.931C279.287 48.9644 279.085 50.0416 278.508 50.9258C277.931 51.81 277.026 52.4287 275.993 52.6459Z" fill="black"/>
<path d="M233.535 53.8754L230.989 41.7606C230.435 39.1222 230.967 34.3918 235.836 32.3681C239.971 30.6565 244.232 29.7611 244.232 29.7611C244.232 29.7611 247.442 31.1208 245.129 31.6068C242.815 32.0929 243.503 35.0631 245.756 34.5899C248.008 34.1166 246.357 37.4511 246.357 37.4511L239.448 49.6454L233.535 53.8754Z" fill="black"/>
</g>
<path d="M44.34 108.48C41.06 108.48 38.06 107.92 35.34 106.8C32.66 105.68 30.34 104.12 28.38 102.12C26.5 100.16 25 97.82 23.88 95.1C22.8 92.38 22.26 89.44 22.26 86.28C22.26 83.08 22.8 80.14 23.88 77.46C25 74.74 26.5 72.38 28.38 70.38C30.34 68.42 32.66 66.88 35.34 65.76C38.06 64.64 41.06 64.08 44.34 64.08C47.66 64.08 50.68 64.64 53.4 65.76C56.16 66.88 58.48 68.44 60.36 70.44C62.32 72.4 63.82 74.74 64.86 77.46C65.9 80.18 66.42 83.12 66.42 86.28C66.42 89.44 65.9 92.38 64.86 95.1C63.82 97.82 62.32 100.16 60.36 102.12C58.48 104.12 56.16 105.68 53.4 106.8C50.64 107.92 47.62 108.48 44.34 108.48ZM44.34 101.52C47.22 101.52 49.66 100.9 51.66 99.66C53.7 98.42 55.24 96.66 56.28 94.38C57.36 92.1 57.9 89.4 57.9 86.28C57.9 83.2 57.36 80.52 56.28 78.24C55.24 75.96 53.7 74.2 51.66 72.96C49.66 71.68 47.22 71.04 44.34 71.04C41.54 71.04 39.12 71.68 37.08 72.96C35.04 74.2 33.48 75.96 32.4 78.24C31.32 80.52 30.78 83.2 30.78 86.28C30.78 89.36 31.32 92.06 32.4 94.38C33.48 96.66 35.04 98.42 37.08 99.66C39.12 100.9 41.54 101.52 44.34 101.52ZM82.8792 108.48C80.6392 108.48 78.7392 107.98 77.1792 106.98C75.6192 105.94 74.4392 104.56 73.6392 102.84C72.8392 101.08 72.4392 99.06 72.4392 96.78V77.16H80.0592V96.78C80.0592 98.66 80.4792 100.12 81.3192 101.16C82.1592 102.16 83.4392 102.66 85.1592 102.66C86.4392 102.66 87.6192 102.38 88.6992 101.82C89.7792 101.26 90.8192 100.48 91.8192 99.48V77.16H99.3792V108H94.7592C93.7192 108 93.0792 107.54 92.8392 106.62L92.3592 104.22C91.0792 105.46 89.6792 106.48 88.1592 107.28C86.6392 108.08 84.8792 108.48 82.8792 108.48ZM97.9392 108L98.7192 101.94L102.139 102.66C102.699 102.78 103.119 102.98 103.399 103.26C103.719 103.54 103.879 103.96 103.879 104.52V108H97.9392ZM73.8792 77.16L73.1592 83.22L69.6792 82.5C69.1592 82.38 68.7392 82.18 68.4192 81.9C68.0992 81.62 67.9392 81.2 67.9392 80.64V77.16H73.8792ZM93.2592 77.16L92.4792 83.22L89.0592 82.5C88.4992 82.38 88.0592 82.18 87.7392 81.9C87.4592 81.62 87.3192 81.2 87.3192 80.64V77.16H93.2592ZM118.526 108.48C115.846 108.48 113.766 107.72 112.286 106.2C110.846 104.68 110.126 102.58 110.126 99.9V82.74H107.006C106.606 82.74 106.266 82.62 105.986 82.38C105.706 82.14 105.566 81.76 105.566 81.24V78.24L110.546 77.4L112.106 69.06C112.266 68.22 112.826 67.8 113.786 67.8H117.686V77.46H125.786V82.74H117.686V99.42C117.686 100.38 117.926 101.14 118.406 101.7C118.886 102.22 119.526 102.48 120.326 102.48C120.766 102.48 121.166 102.4 121.526 102.24C121.886 102.04 122.226 101.86 122.546 101.7C122.866 101.54 123.146 101.46 123.386 101.46C123.746 101.46 124.066 101.68 124.346 102.12L126.626 105.78C125.546 106.62 124.306 107.28 122.906 107.76C121.506 108.24 120.046 108.48 118.526 108.48ZM143.236 108.48C140.596 108.48 138.216 107.82 136.096 106.5C134.016 105.14 132.356 103.28 131.116 100.92C129.916 98.52 129.316 95.72 129.316 92.52C129.316 89.44 129.896 86.72 131.056 84.36C132.216 81.96 133.916 80.08 136.156 78.72C138.396 77.36 141.136 76.68 144.376 76.68C145.896 76.68 147.476 76.88 149.116 77.28C150.796 77.64 152.456 78.18 154.096 78.9V83.28L150.256 83.76C149.456 83.28 148.636 82.94 147.796 82.74C146.996 82.5 146.016 82.38 144.856 82.38C143.096 82.38 141.636 82.8 140.476 83.64C139.356 84.48 138.516 85.66 137.956 87.18C137.436 88.7 137.176 90.48 137.176 92.52C137.176 95.72 137.816 98.24 139.096 100.08C140.416 101.88 142.256 102.78 144.616 102.78C145.896 102.78 146.976 102.56 147.856 102.12C148.736 101.64 149.496 101.16 150.136 100.68C150.776 100.2 151.356 99.96 151.876 99.96C152.196 99.96 152.456 100.02 152.656 100.14C152.896 100.26 153.096 100.42 153.256 100.62L155.416 103.38C153.776 105.3 151.896 106.64 149.776 107.4C147.656 108.12 145.476 108.48 143.236 108.48ZM148.756 81.96L154.096 83.28V87.96H151.336C150.776 87.96 150.356 87.8 150.076 87.48C149.796 87.16 149.596 86.74 149.476 86.22L148.756 81.96ZM173.505 76.68C176.625 76.68 179.325 77.34 181.605 78.66C183.885 79.94 185.645 81.78 186.885 84.18C188.125 86.54 188.745 89.32 188.745 92.52C188.745 95.72 188.125 98.52 186.885 100.92C185.645 103.28 183.885 105.14 181.605 106.5C179.325 107.82 176.625 108.48 173.505 108.48C170.425 108.48 167.725 107.82 165.405 106.5C163.125 105.14 161.345 103.28 160.065 100.92C158.785 98.52 158.145 95.72 158.145 92.52C158.145 89.32 158.785 86.54 160.065 84.18C161.345 81.78 163.125 79.94 165.405 78.66C167.725 77.34 170.425 76.68 173.505 76.68ZM173.505 102.72C176.025 102.72 177.885 101.86 179.085 100.14C180.285 98.42 180.885 95.9 180.885 92.58C180.885 90.34 180.625 88.48 180.105 87C179.585 85.48 178.765 84.34 177.645 83.58C176.565 82.82 175.185 82.44 173.505 82.44C171.825 82.44 170.425 82.84 169.305 83.64C168.185 84.4 167.345 85.54 166.785 87.06C166.265 88.54 166.005 90.38 166.005 92.58C166.005 95.82 166.605 98.32 167.805 100.08C169.045 101.84 170.945 102.72 173.505 102.72ZM196.397 108V77.16H201.017C202.017 77.16 202.657 77.62 202.937 78.54L203.417 80.82C204.497 79.66 205.697 78.68 207.017 77.88C208.337 77.08 209.897 76.68 211.697 76.68C213.657 76.68 215.257 77.22 216.497 78.3C217.737 79.34 218.657 80.72 219.257 82.44C220.217 80.44 221.597 78.98 223.397 78.06C225.197 77.14 227.117 76.68 229.157 76.68C232.597 76.68 235.217 77.72 237.017 79.8C238.857 81.88 239.777 84.74 239.777 88.38V108H232.217V88.38C232.217 86.46 231.797 85 230.957 84C230.117 83 228.857 82.5 227.177 82.5C225.697 82.5 224.437 83.02 223.397 84.06C222.397 85.1 221.897 86.54 221.897 88.38V108H214.277V88.38C214.277 86.34 213.857 84.86 213.017 83.94C212.217 82.98 211.037 82.5 209.477 82.5C208.397 82.5 207.397 82.78 206.477 83.34C205.597 83.86 204.757 84.56 203.957 85.44V108H196.397ZM191.897 108V104.52C191.897 103.96 192.037 103.54 192.317 103.26C192.637 102.98 193.077 102.78 193.637 102.66L197.057 101.94L197.837 108H191.897ZM202.517 108L203.297 101.94L206.717 102.66C207.277 102.78 207.697 102.98 207.977 103.26C208.297 103.54 208.457 103.96 208.457 104.52V108H202.517ZM220.457 108L221.177 101.94L224.657 102.66C225.177 102.78 225.597 102.98 225.917 103.26C226.237 103.54 226.397 103.96 226.397 104.52V108H220.457ZM197.837 77.16L197.057 83.22L193.637 82.5C193.077 82.38 192.637 82.18 192.317 81.9C192.037 81.62 191.897 81.2 191.897 80.64V77.16H197.837ZM238.337 108L239.117 101.94L242.537 102.66C243.097 102.78 243.517 102.98 243.797 103.26C244.117 103.54 244.277 103.96 244.277 104.52V108H238.337ZM262.037 108.48C258.957 108.48 256.277 107.8 253.997 106.44C251.717 105.04 249.937 103.1 248.657 100.62C247.417 98.1 246.797 95.2 246.797 91.92C246.797 89.04 247.417 86.46 248.657 84.18C249.897 81.86 251.637 80.04 253.877 78.72C256.117 77.36 258.717 76.68 261.677 76.68C264.357 76.68 266.697 77.26 268.697 78.42C270.737 79.54 272.297 81.14 273.377 83.22C274.497 85.3 275.057 87.78 275.057 90.66C275.057 91.74 274.957 92.5 274.757 92.94C274.557 93.34 274.077 93.54 273.317 93.54H254.417C254.417 93.66 254.417 93.78 254.417 93.9C254.417 94.02 254.437 94.14 254.477 94.26C254.797 97.06 255.657 99.16 257.057 100.56C258.497 101.96 260.377 102.66 262.697 102.66C263.777 102.66 264.857 102.44 265.937 102C267.057 101.56 268.077 101.12 268.997 100.68C269.917 100.2 270.657 99.96 271.217 99.96C271.777 99.96 272.237 100.18 272.597 100.62L274.817 103.38C273.737 104.62 272.477 105.62 271.037 106.38C269.637 107.14 268.157 107.68 266.597 108C265.077 108.32 263.557 108.48 262.037 108.48ZM254.537 89.04H268.277C268.277 87.04 267.737 85.38 266.657 84.06C265.577 82.74 263.977 82.08 261.857 82.08C259.737 82.08 258.057 82.68 256.817 83.88C255.617 85.08 254.857 86.8 254.537 89.04Z" fill="black"/>
<path d="M45.78 50.4L45.36 54H26.4L26.7 42.42L26.4 15.54H31.32L31.02 42L31.2 49.98H45.42L45.78 50.4ZM52.1006 40.08V40.2C52.1006 43.56 52.8606 46.14 54.3806 47.94C55.9006 49.74 58.0606 50.64 60.8606 50.64C62.2606 50.64 63.6606 50.42 65.0606 49.98C66.4606 49.5 67.7406 48.84 68.9006 48L69.3806 48.36L68.6606 52.44C65.8606 53.8 63.0606 54.48 60.2606 54.48C56.3406 54.48 53.2606 53.24 51.0206 50.76C48.7806 48.24 47.6606 44.8 47.6606 40.44C47.6606 36.04 48.7806 32.54 51.0206 29.94C53.2606 27.34 56.2806 26.04 60.0806 26.04C63.2806 26.04 65.7606 26.96 67.5206 28.8C69.2806 30.6 70.1606 33.12 70.1606 36.36C70.1606 37.44 70.0806 38.46 69.9206 39.42L69.3206 40.02L52.1006 40.08ZM60.0806 29.4C58.0806 29.4 56.4006 30.06 55.0406 31.38C53.7206 32.66 52.8406 34.48 52.4006 36.84L65.6606 36.6L65.7806 35.76C65.7806 33.72 65.2806 32.16 64.2806 31.08C63.3206 29.96 61.9206 29.4 60.0806 29.4ZM86.6569 26.04C89.2569 26.04 91.2969 26.68 92.7769 27.96C94.2969 29.24 95.0569 31 95.0569 33.24C95.0569 33.92 94.9369 36.38 94.6969 40.62C94.4569 44.86 94.3369 47.34 94.3369 48.06C94.3369 48.94 94.4769 49.56 94.7569 49.92C95.0369 50.24 95.5169 50.4 96.1969 50.4C96.7969 50.4 97.4769 50.28 98.2369 50.04L98.7169 50.46L98.2369 53.16C97.0769 53.84 95.9369 54.24 94.8169 54.36C93.5769 54.24 92.5769 53.8 91.8169 53.04C91.0969 52.28 90.7169 51.24 90.6769 49.92H90.2569C88.0969 52.12 85.9569 53.62 83.8369 54.42C81.1569 54.42 79.0569 53.76 77.5369 52.44C76.0569 51.08 75.3169 49.24 75.3169 46.92C75.3169 45.16 75.7769 43.76 76.6969 42.72C77.6569 41.68 79.0569 40.94 80.8969 40.5L90.6169 38.22L90.6769 34.32C90.6769 32.76 90.2569 31.56 89.4169 30.72C88.6169 29.88 87.4569 29.46 85.9369 29.46C84.5769 29.46 83.2169 29.78 81.8569 30.42C80.4969 31.06 79.0369 32.06 77.4769 33.42L76.9969 33.18L76.3969 29.76C79.7169 27.28 83.1369 26.04 86.6569 26.04ZM81.8569 43.38C81.0569 43.62 80.4769 43.96 80.1169 44.4C79.7569 44.8 79.5769 45.42 79.5769 46.26C79.5769 47.58 79.9369 48.62 80.6569 49.38C81.4169 50.1 82.4169 50.46 83.6569 50.46C85.8569 50.46 88.0969 49.04 90.3769 46.2L90.5569 41.28L81.8569 43.38ZM117.326 26.46C117.806 26.46 118.326 26.5 118.886 26.58V31.2L118.346 31.38C117.666 31.18 116.926 31.08 116.126 31.08C114.806 31.08 113.586 31.62 112.466 32.7C111.386 33.74 110.306 35.42 109.226 37.74L109.166 41.94L109.466 54H104.726L105.026 42.36L104.786 26.82L109.286 26.4L109.226 32.04H109.586C110.706 30.04 111.946 28.62 113.306 27.78C114.666 26.9 116.006 26.46 117.326 26.46ZM141.46 35.34C141.5 33.7 141.12 32.42 140.32 31.5C139.52 30.58 138.34 30.12 136.78 30.12C134.26 30.12 131.54 31.54 128.62 34.38V41.94L128.86 54H124.12L124.42 42.36L124.18 26.82L128.68 26.4V30.42H129.04C131.52 28.22 134.06 26.8 136.66 26.16C139.66 26.16 141.94 26.86 143.5 28.26C145.1 29.66 145.88 31.66 145.84 34.26L145.72 42.06L145.96 54H141.16L141.46 35.34ZM155.358 42.36L155.178 26.82L159.798 26.4L159.678 41.94L159.798 54H155.118L155.358 42.36ZM157.578 14.22C158.378 14.22 159.018 14.46 159.498 14.94C159.978 15.42 160.218 16.08 160.218 16.92C160.218 17.8 159.958 18.5 159.438 19.02C158.958 19.54 158.278 19.8 157.398 19.8C156.558 19.8 155.898 19.56 155.418 19.08C154.978 18.6 154.758 17.92 154.758 17.04C154.758 16.2 154.998 15.52 155.478 15C155.998 14.48 156.698 14.22 157.578 14.22ZM186.929 35.34C186.969 33.7 186.589 32.42 185.789 31.5C184.989 30.58 183.809 30.12 182.249 30.12C179.729 30.12 177.009 31.54 174.089 34.38V41.94L174.329 54H169.589L169.889 42.36L169.649 26.82L174.149 26.4V30.42H174.509C176.989 28.22 179.529 26.8 182.129 26.16C185.129 26.16 187.409 26.86 188.969 28.26C190.569 29.66 191.349 31.66 191.309 34.26L191.189 42.06L191.429 54H186.629L186.929 35.34ZM224.827 28.86C223.587 29.22 221.747 29.64 219.307 30.12L219.187 30.36C220.067 31.76 220.507 33.46 220.507 35.46C220.507 38.38 219.527 40.7 217.567 42.42C215.647 44.14 213.027 45 209.707 45C208.387 45 207.147 44.84 205.987 44.52C205.307 45.04 204.847 45.46 204.607 45.78C204.367 46.1 204.247 46.46 204.247 46.86C204.247 47.7 204.767 48.3 205.807 48.66C206.847 48.98 208.547 49.32 210.907 49.68C213.227 50 215.127 50.36 216.607 50.76C218.087 51.16 219.367 51.82 220.447 52.74C221.527 53.62 222.067 54.86 222.067 56.46C222.067 58.14 221.487 59.68 220.327 61.08C219.207 62.48 217.647 63.58 215.647 64.38C213.687 65.18 211.527 65.58 209.167 65.58C205.967 65.58 203.467 64.84 201.667 63.36C199.907 61.92 199.027 60.04 199.027 57.72C199.987 55.8 201.747 54.06 204.307 52.5V52.2C202.867 51.76 201.747 51.18 200.947 50.46C200.187 49.7 199.807 48.68 199.807 47.4C200.647 46 201.867 44.78 203.467 43.74V43.5C202.187 42.7 201.207 41.66 200.527 40.38C199.887 39.06 199.567 37.54 199.567 35.82C199.567 32.82 200.527 30.48 202.447 28.8C204.407 27.08 207.007 26.22 210.247 26.22C212.367 26.22 214.167 26.58 215.647 27.3C218.407 26.78 221.307 26.1 224.347 25.26L224.827 25.62V28.86ZM209.947 41.76C211.947 41.76 213.487 41.2 214.567 40.08C215.687 38.96 216.247 37.4 216.247 35.4C216.247 33.48 215.727 32 214.687 30.96C213.647 29.92 212.147 29.4 210.187 29.4C208.187 29.4 206.627 29.94 205.507 31.02C204.387 32.1 203.827 33.64 203.827 35.64C203.827 37.56 204.347 39.06 205.387 40.14C206.467 41.22 207.987 41.76 209.947 41.76ZM217.867 57.36C217.867 56.04 217.187 55.12 215.827 54.6C214.507 54.08 212.487 53.62 209.767 53.22L207.847 52.92C206.327 53.84 205.167 54.72 204.367 55.56C203.607 56.4 203.227 57.28 203.227 58.2C203.227 59.36 203.787 60.32 204.907 61.08C206.067 61.84 207.667 62.22 209.707 62.22C212.027 62.22 213.967 61.74 215.527 60.78C217.087 59.86 217.867 58.72 217.867 57.36Z" fill="black"/>
<defs>
<clipPath id="clip0_92_24">
<rect width="63.7003" height="63.7003" fill="white" transform="translate(223 23.0983) rotate(-11.866)"/>
</clipPath>
</defs>
</svg>
