<svg width="37" height="37" viewBox="0 0 37 37" fill="none" xmlns="http://www.w3.org/2000/svg">
<g clip-path="url(#clip0_80_6)">
<path d="M7.0975 11.4918L26.0585 7.50783C26.2799 7.46123 26.5042 7.42879 26.7298 7.41071C26.5455 6.90361 26.2604 6.43909 25.8917 6.04515C25.523 5.6512 25.0784 5.336 24.5846 5.11855C24.0908 4.9011 23.5581 4.7859 23.0185 4.77989C22.479 4.77388 21.9439 4.87719 21.4453 5.0836L6.41109 11.0223L6.39331 11.026C5.45383 11.4188 4.69975 12.1555 4.28511 13.0856C5.03381 12.2745 6.01699 11.7174 7.0975 11.4918ZM26.3573 8.9299L7.39629 12.9139C6.39111 13.1262 5.51121 13.7286 4.94965 14.5889C4.38809 15.4493 4.19074 16.4972 4.40089 17.5028L6.79126 28.8794C7.00361 29.8846 7.60603 30.7645 8.46635 31.3261C9.32666 31.8876 10.3746 32.085 11.3803 31.8748L30.3412 27.8909C31.3464 27.6785 32.2263 27.0761 32.7879 26.2158C33.3494 25.3555 33.5468 24.3075 33.3366 23.3019L30.9463 11.9253C30.7339 10.9201 30.1315 10.0402 29.2712 9.47866C28.4109 8.9171 27.3629 8.71975 26.3573 8.9299ZM25.9331 20.8979C25.5581 20.9767 25.1682 20.9425 24.8126 20.7996C24.457 20.6568 24.1517 20.4117 23.9354 20.0954C23.7191 19.7791 23.6015 19.4058 23.5973 19.0226C23.5932 18.6394 23.7028 18.2636 23.9123 17.9427C24.1217 17.6218 24.4216 17.3703 24.7741 17.2198C25.1265 17.0694 25.5156 17.0268 25.8923 17.0975C26.2689 17.1682 26.6161 17.3491 26.8899 17.6171C27.1638 17.8851 27.352 18.2284 27.4308 18.6034C27.5365 19.1062 27.4381 19.6305 27.1572 20.0608C26.8763 20.4911 26.436 20.7922 25.9331 20.8979Z" fill="black"/>
<path d="M5.27089 21.4962L4.03213 15.6005C3.76234 14.3165 4.02108 12.0145 6.39099 11.0296C8.40304 10.1966 10.4769 9.7609 10.4769 9.7609C10.4769 9.7609 12.0389 10.4226 10.9131 10.6591C9.7873 10.8957 10.1219 12.3412 11.2181 12.1108C12.3143 11.8805 11.5107 13.5033 11.5107 13.5033L8.14836 19.4377L5.27089 21.4962Z" fill="black"/>
</g>
<defs>
<clipPath id="clip0_80_6">
<rect width="31" height="31" fill="white" transform="translate(0.144043 6.51843) rotate(-11.866)"/>
</clipPath>
</defs>
</svg>
