<svg width="201" height="68" viewBox="0 0 201 68" fill="none" xmlns="http://www.w3.org/2000/svg">
<g clip-path="url(#clip0_60_5)">
<path d="M115.097 18.4918L134.058 14.5078C134.28 14.4612 134.504 14.4288 134.73 14.4107C134.545 13.9036 134.26 13.4391 133.892 13.0451C133.523 12.6512 133.078 12.336 132.585 12.1186C132.091 11.9011 131.558 11.7859 131.019 11.7799C130.479 11.7739 129.944 11.8772 129.445 12.0836L114.411 18.0223L114.393 18.026C113.454 18.4188 112.7 19.1555 112.285 20.0856C113.034 19.2745 114.017 18.7174 115.097 18.4918ZM134.357 15.9299L115.396 19.9139C114.391 20.1262 113.511 20.7286 112.95 21.5889C112.388 22.4493 112.191 23.4972 112.401 24.5028L114.791 35.8794C115.004 36.8846 115.606 37.7645 116.466 38.3261C117.327 38.8876 118.375 39.085 119.38 38.8748L138.341 34.8909C139.346 34.6785 140.226 34.0761 140.788 33.2158C141.349 32.3555 141.547 31.3075 141.337 30.3019L138.946 18.9253C138.734 17.9201 138.131 17.0402 137.271 16.4787C136.411 15.9171 135.363 15.7197 134.357 15.9299ZM133.933 27.8979C133.558 27.9767 133.168 27.9425 132.813 27.7996C132.457 27.6568 132.152 27.4117 131.935 27.0954C131.719 26.7791 131.601 26.4058 131.597 26.0226C131.593 25.6394 131.703 25.2636 131.912 24.9427C132.122 24.6218 132.422 24.3703 132.774 24.2198C133.127 24.0694 133.516 24.0268 133.892 24.0975C134.269 24.1682 134.616 24.3491 134.89 24.6171C135.164 24.8851 135.352 25.2284 135.431 25.6034C135.536 26.1062 135.438 26.6305 135.157 27.0608C134.876 27.4911 134.436 27.7922 133.933 27.8979Z" fill="black"/>
<path d="M113.271 28.4962L112.032 22.6005C111.762 21.3165 112.021 19.0145 114.391 18.0296C116.403 17.1966 118.477 16.7609 118.477 16.7609C118.477 16.7609 120.039 17.4226 118.913 17.6591C117.787 17.8957 118.122 19.3412 119.218 19.1108C120.314 18.8805 119.511 20.5033 119.511 20.5033L116.148 26.4377L113.271 28.4962Z" fill="black"/>
</g>
<path d="M12.448 58.7938C10.6987 58.7938 9.09867 58.4952 7.648 57.8978C6.21867 57.3005 4.98133 56.4685 3.936 55.4018C2.93333 54.3565 2.13333 53.1085 1.536 51.6578C0.96 50.2072 0.672 48.6392 0.672 46.9538C0.672 45.2472 0.96 43.6792 1.536 42.2498C2.13333 40.7992 2.93333 39.5405 3.936 38.4738C4.98133 37.4285 6.21867 36.6072 7.648 36.0098C9.09867 35.4125 10.6987 35.1138 12.448 35.1138C14.2187 35.1138 15.8293 35.4125 17.28 36.0098C18.752 36.6072 19.9893 37.4392 20.992 38.5058C22.0373 39.5512 22.8373 40.7992 23.392 42.2498C23.9467 43.7005 24.224 45.2685 24.224 46.9538C24.224 48.6392 23.9467 50.2072 23.392 51.6578C22.8373 53.1085 22.0373 54.3565 20.992 55.4018C19.9893 56.4685 18.752 57.3005 17.28 57.8978C15.808 58.4952 14.1973 58.7938 12.448 58.7938ZM12.448 55.0818C13.984 55.0818 15.2853 54.7512 16.352 54.0898C17.44 53.4285 18.2613 52.4898 18.816 51.2738C19.392 50.0578 19.68 48.6178 19.68 46.9538C19.68 45.3112 19.392 43.8818 18.816 42.6658C18.2613 41.4498 17.44 40.5112 16.352 39.8498C15.2853 39.1672 13.984 38.8258 12.448 38.8258C10.9547 38.8258 9.664 39.1672 8.576 39.8498C7.488 40.5112 6.656 41.4498 6.08 42.6658C5.504 43.8818 5.216 45.3112 5.216 46.9538C5.216 48.5965 5.504 50.0365 6.08 51.2738C6.656 52.4898 7.488 53.4285 8.576 54.0898C9.664 54.7512 10.9547 55.0818 12.448 55.0818ZM33.0023 58.7938C31.8076 58.7938 30.7943 58.5272 29.9623 57.9938C29.1303 57.4392 28.5009 56.7032 28.0743 55.7858C27.6476 54.8472 27.4343 53.7698 27.4343 52.5538V42.0898H31.4983V52.5538C31.4983 53.5565 31.7223 54.3352 32.1703 54.8898C32.6183 55.4232 33.3009 55.6898 34.2183 55.6898C34.9009 55.6898 35.5303 55.5405 36.1063 55.2418C36.6823 54.9432 37.2369 54.5272 37.7703 53.9938V42.0898H41.8022V58.5378H39.3383C38.7836 58.5378 38.4423 58.2925 38.3143 57.8018L38.0583 56.5218C37.3756 57.1832 36.6289 57.7272 35.8183 58.1538C35.0076 58.5805 34.0689 58.7938 33.0023 58.7938ZM41.0343 58.5378L41.4503 55.3058L43.2743 55.6898C43.5729 55.7538 43.7969 55.8605 43.9463 56.0098C44.1169 56.1592 44.2023 56.3832 44.2023 56.6818V58.5378H41.0343ZM28.2023 42.0898L27.8183 45.3218L25.9622 44.9378C25.6849 44.8738 25.4609 44.7672 25.2903 44.6178C25.1196 44.4685 25.0343 44.2445 25.0343 43.9458V42.0898H28.2023ZM38.5383 42.0898L38.1223 45.3218L36.2983 44.9378C35.9996 44.8738 35.7649 44.7672 35.5943 44.6178C35.4449 44.4685 35.3703 44.2445 35.3703 43.9458V42.0898H38.5383ZM52.014 58.7938C50.5847 58.7938 49.4753 58.3885 48.686 57.5778C47.918 56.7672 47.534 55.6472 47.534 54.2178V45.0658H45.87C45.6567 45.0658 45.4753 45.0018 45.326 44.8738C45.1767 44.7458 45.102 44.5432 45.102 44.2658V42.6658L47.758 42.2178L48.59 37.7698C48.6753 37.3218 48.974 37.0978 49.486 37.0978H51.566V42.2498H55.886V45.0658H51.566V53.9618C51.566 54.4738 51.694 54.8792 51.95 55.1778C52.206 55.4552 52.5473 55.5938 52.974 55.5938C53.2087 55.5938 53.422 55.5512 53.614 55.4658C53.806 55.3592 53.9873 55.2632 54.158 55.1778C54.3287 55.0925 54.478 55.0498 54.606 55.0498C54.798 55.0498 54.9687 55.1672 55.118 55.4018L56.334 57.3538C55.758 57.8018 55.0967 58.1538 54.35 58.4098C53.6033 58.6658 52.8247 58.7938 52.014 58.7938ZM65.1927 58.7938C63.7848 58.7938 62.5154 58.4418 61.3848 57.7378C60.2754 57.0125 59.3901 56.0205 58.7288 54.7618C58.0888 53.4818 57.7688 51.9885 57.7688 50.2818C57.7688 48.6392 58.0781 47.1885 58.6968 45.9298C59.3154 44.6498 60.2221 43.6472 61.4168 42.9218C62.6114 42.1965 64.0728 41.8338 65.8008 41.8338C66.6114 41.8338 67.4541 41.9405 68.3288 42.1538C69.2248 42.3458 70.1101 42.6338 70.9848 43.0178V45.3538L68.9368 45.6098C68.5101 45.3538 68.0728 45.1725 67.6248 45.0658C67.1981 44.9378 66.6754 44.8738 66.0568 44.8738C65.1181 44.8738 64.3394 45.0978 63.7208 45.5458C63.1234 45.9938 62.6754 46.6232 62.3768 47.4338C62.0994 48.2445 61.9608 49.1938 61.9608 50.2818C61.9608 51.9885 62.3021 53.3325 62.9848 54.3138C63.6888 55.2738 64.6701 55.7538 65.9288 55.7538C66.6114 55.7538 67.1874 55.6365 67.6568 55.4018C68.1261 55.1458 68.5314 54.8898 68.8728 54.6338C69.2141 54.3778 69.5234 54.2498 69.8008 54.2498C69.9714 54.2498 70.1101 54.2818 70.2168 54.3458C70.3448 54.4098 70.4514 54.4952 70.5368 54.6018L71.6888 56.0738C70.8141 57.0978 69.8114 57.8125 68.6808 58.2178C67.5501 58.6018 66.3874 58.7938 65.1927 58.7938ZM68.1368 44.6498L70.9848 45.3538V47.8498H69.5128C69.2141 47.8498 68.9901 47.7645 68.8408 47.5938C68.6914 47.4232 68.5848 47.1992 68.5208 46.9218L68.1368 44.6498ZM81.3358 41.8338C82.9998 41.8338 84.4398 42.1858 85.6558 42.8898C86.8718 43.5725 87.8104 44.5538 88.4718 45.8338C89.1331 47.0925 89.4638 48.5752 89.4638 50.2818C89.4638 51.9885 89.1331 53.4818 88.4718 54.7618C87.8104 56.0205 86.8718 57.0125 85.6558 57.7378C84.4398 58.4418 82.9998 58.7938 81.3358 58.7938C79.6931 58.7938 78.2531 58.4418 77.0158 57.7378C75.7998 57.0125 74.8504 56.0205 74.1678 54.7618C73.4851 53.4818 73.1438 51.9885 73.1438 50.2818C73.1438 48.5752 73.4851 47.0925 74.1678 45.8338C74.8504 44.5538 75.7998 43.5725 77.0158 42.8898C78.2531 42.1858 79.6931 41.8338 81.3358 41.8338ZM81.3358 55.7218C82.6798 55.7218 83.6718 55.2632 84.3118 54.3458C84.9518 53.4285 85.2718 52.0845 85.2718 50.3138C85.2718 49.1192 85.1331 48.1272 84.8558 47.3378C84.5784 46.5272 84.1411 45.9192 83.5438 45.5138C82.9678 45.1085 82.2318 44.9058 81.3358 44.9058C80.4398 44.9058 79.6931 45.1192 79.0958 45.5458C78.4984 45.9512 78.0504 46.5592 77.7518 47.3698C77.4744 48.1592 77.3358 49.1405 77.3358 50.3138C77.3358 52.0418 77.6558 53.3752 78.2958 54.3138C78.9571 55.2525 79.9704 55.7218 81.3358 55.7218ZM93.5453 58.5378V42.0898H96.0093C96.5426 42.0898 96.8839 42.3352 97.0333 42.8258L97.2893 44.0418C97.8653 43.4232 98.5053 42.9005 99.2093 42.4738C99.9133 42.0472 100.745 41.8338 101.705 41.8338C102.751 41.8338 103.604 42.1218 104.265 42.6978C104.927 43.2525 105.417 43.9885 105.737 44.9058C106.249 43.8392 106.985 43.0605 107.945 42.5698C108.905 42.0792 109.929 41.8338 111.017 41.8338C112.852 41.8338 114.249 42.3885 115.209 43.4978C116.191 44.6072 116.681 46.1325 116.681 48.0738V58.5378H112.649V48.0738C112.649 47.0498 112.425 46.2712 111.977 45.7378C111.529 45.2045 110.857 44.9378 109.961 44.9378C109.172 44.9378 108.5 45.2152 107.945 45.7698C107.412 46.3245 107.145 47.0925 107.145 48.0738V58.5378H103.081V48.0738C103.081 46.9858 102.857 46.1965 102.409 45.7058C101.983 45.1938 101.353 44.9378 100.521 44.9378C99.9453 44.9378 99.4119 45.0872 98.9213 45.3858C98.4519 45.6632 98.0039 46.0365 97.5773 46.5058V58.5378H93.5453ZM91.1453 58.5378V56.6818C91.1453 56.3832 91.2199 56.1592 91.3693 56.0098C91.5399 55.8605 91.7746 55.7538 92.0733 55.6898L93.8973 55.3058L94.3133 58.5378H91.1453ZM96.8093 58.5378L97.2253 55.3058L99.0493 55.6898C99.3479 55.7538 99.5719 55.8605 99.7213 56.0098C99.8919 56.1592 99.9773 56.3832 99.9773 56.6818V58.5378H96.8093ZM106.377 58.5378L106.761 55.3058L108.617 55.6898C108.895 55.7538 109.119 55.8605 109.289 56.0098C109.46 56.1592 109.545 56.3832 109.545 56.6818V58.5378H106.377ZM94.3133 42.0898L93.8973 45.3218L92.0733 44.9378C91.7746 44.8738 91.5399 44.7672 91.3693 44.6178C91.2199 44.4685 91.1453 44.2445 91.1453 43.9458V42.0898H94.3133ZM115.913 58.5378L116.329 55.3058L118.153 55.6898C118.452 55.7538 118.676 55.8605 118.825 56.0098C118.996 56.1592 119.081 56.3832 119.081 56.6818V58.5378H115.913ZM128.553 58.7938C126.91 58.7938 125.481 58.4312 124.265 57.7058C123.049 56.9592 122.1 55.9245 121.417 54.6018C120.756 53.2578 120.425 51.7112 120.425 49.9618C120.425 48.4258 120.756 47.0498 121.417 45.8338C122.078 44.5965 123.006 43.6258 124.201 42.9218C125.396 42.1965 126.782 41.8338 128.361 41.8338C129.79 41.8338 131.038 42.1432 132.105 42.7618C133.193 43.3592 134.025 44.2125 134.601 45.3218C135.198 46.4312 135.497 47.7538 135.497 49.2898C135.497 49.8658 135.444 50.2712 135.337 50.5058C135.23 50.7192 134.974 50.8258 134.569 50.8258H124.489C124.489 50.8898 124.489 50.9538 124.489 51.0178C124.489 51.0818 124.5 51.1458 124.521 51.2098C124.692 52.7032 125.15 53.8232 125.897 54.5698C126.665 55.3165 127.668 55.6898 128.905 55.6898C129.481 55.6898 130.057 55.5725 130.633 55.3378C131.23 55.1032 131.774 54.8685 132.265 54.6338C132.756 54.3778 133.15 54.2498 133.449 54.2498C133.748 54.2498 133.993 54.3672 134.185 54.6018L135.369 56.0738C134.793 56.7352 134.121 57.2685 133.353 57.6738C132.606 58.0792 131.817 58.3672 130.985 58.5378C130.174 58.7085 129.364 58.7938 128.553 58.7938ZM124.553 48.4258H131.881C131.881 47.3592 131.593 46.4738 131.017 45.7698C130.441 45.0658 129.588 44.7138 128.457 44.7138C127.326 44.7138 126.43 45.0338 125.769 45.6738C125.129 46.3138 124.724 47.2312 124.553 48.4258Z" fill="black"/>
<path d="M13.216 27.08L12.992 29H2.88L3.04 22.824L2.88 8.488H5.504L5.344 22.6L5.44 26.856H13.024L13.216 27.08ZM16.587 21.576V21.64C16.587 23.432 16.9923 24.808 17.803 25.768C18.6137 26.728 19.7657 27.208 21.259 27.208C22.0057 27.208 22.7523 27.0907 23.499 26.856C24.2457 26.6 24.9283 26.248 25.547 25.8L25.803 25.992L25.419 28.168C23.9257 28.8933 22.4323 29.256 20.939 29.256C18.8483 29.256 17.2057 28.5947 16.011 27.272C14.8163 25.928 14.219 24.0933 14.219 21.768C14.219 19.4213 14.8163 17.5547 16.011 16.168C17.2057 14.7813 18.8163 14.088 20.843 14.088C22.5497 14.088 23.8723 14.5787 24.811 15.56C25.7497 16.52 26.219 17.864 26.219 19.592C26.219 20.168 26.1763 20.712 26.091 21.224L25.771 21.544L16.587 21.576ZM20.843 15.88C19.7763 15.88 18.8803 16.232 18.155 16.936C17.451 17.6187 16.9817 18.5893 16.747 19.848L23.819 19.72L23.883 19.272C23.883 18.184 23.6163 17.352 23.083 16.776C22.571 16.1787 21.8243 15.88 20.843 15.88ZM35.017 14.088C36.4037 14.088 37.4917 14.4293 38.281 15.112C39.0917 15.7947 39.497 16.7333 39.497 17.928C39.497 18.2907 39.433 19.6027 39.305 21.864C39.177 24.1253 39.113 25.448 39.113 25.832C39.113 26.3013 39.1877 26.632 39.337 26.824C39.4863 26.9947 39.7423 27.08 40.105 27.08C40.425 27.08 40.7877 27.016 41.193 26.888L41.449 27.112L41.193 28.552C40.5743 28.9147 39.9663 29.128 39.369 29.192C38.7077 29.128 38.1743 28.8933 37.769 28.488C37.385 28.0827 37.1823 27.528 37.161 26.824H36.937C35.785 27.9973 34.6437 28.7973 33.513 29.224C32.0837 29.224 30.9637 28.872 30.153 28.168C29.3637 27.4427 28.969 26.4613 28.969 25.224C28.969 24.2853 29.2143 23.5387 29.705 22.984C30.217 22.4293 30.9637 22.0347 31.945 21.8L37.129 20.584L37.161 18.504C37.161 17.672 36.937 17.032 36.489 16.584C36.0623 16.136 35.4437 15.912 34.633 15.912C33.9077 15.912 33.1823 16.0827 32.457 16.424C31.7317 16.7653 30.953 17.2987 30.121 18.024L29.865 17.896L29.545 16.072C31.3157 14.7493 33.1397 14.088 35.017 14.088ZM32.457 23.336C32.0303 23.464 31.721 23.6453 31.529 23.88C31.337 24.0933 31.241 24.424 31.241 24.872C31.241 25.576 31.433 26.1307 31.817 26.536C32.2223 26.92 32.7557 27.112 33.417 27.112C34.5903 27.112 35.785 26.3547 37.001 24.84L37.097 22.216L32.457 23.336ZM51.3738 14.312C51.6298 14.312 51.9071 14.3333 52.2058 14.376V16.84L51.9178 16.936C51.5551 16.8293 51.1604 16.776 50.7338 16.776C50.0298 16.776 49.3791 17.064 48.7818 17.64C48.2058 18.1947 47.6298 19.0907 47.0538 20.328L47.0218 22.568L47.1818 29H44.6538L44.8138 22.792L44.6858 14.504L47.0858 14.28L47.0538 17.288H47.2458C47.8431 16.2213 48.5044 15.464 49.2298 15.016C49.9551 14.5467 50.6698 14.312 51.3738 14.312ZM64.2455 19.048C64.2668 18.1733 64.0642 17.4907 63.6375 17C63.2108 16.5093 62.5815 16.264 61.7495 16.264C60.4055 16.264 58.9548 17.0213 57.3975 18.536V22.568L57.5255 29H54.9975L55.1575 22.792L55.0295 14.504L57.4295 14.28V16.424H57.6215C58.9442 15.2507 60.2988 14.4933 61.6855 14.152C63.2855 14.152 64.5015 14.5253 65.3335 15.272C66.1868 16.0187 66.6028 17.0853 66.5815 18.472L66.5175 22.632L66.6455 29H64.0855L64.2455 19.048ZM71.6575 22.792L71.5615 14.504L74.0255 14.28L73.9615 22.568L74.0255 29H71.5295L71.6575 22.792ZM72.8415 7.784C73.2682 7.784 73.6095 7.912 73.8655 8.168C74.1215 8.424 74.2495 8.776 74.2495 9.224C74.2495 9.69333 74.1108 10.0667 73.8335 10.344C73.5775 10.6213 73.2148 10.76 72.7455 10.76C72.2975 10.76 71.9455 10.632 71.6895 10.376C71.4548 10.12 71.3375 9.75733 71.3375 9.288C71.3375 8.84 71.4655 8.47733 71.7215 8.2C71.9988 7.92267 72.3722 7.784 72.8415 7.784ZM88.4955 19.048C88.5168 18.1733 88.3142 17.4907 87.8875 17C87.4608 16.5093 86.8315 16.264 85.9995 16.264C84.6555 16.264 83.2048 17.0213 81.6475 18.536V22.568L81.7755 29H79.2475L79.4075 22.792L79.2795 14.504L81.6795 14.28V16.424H81.8715C83.1942 15.2507 84.5488 14.4933 85.9355 14.152C87.5355 14.152 88.7515 14.5253 89.5835 15.272C90.4368 16.0187 90.8528 17.0853 90.8315 18.472L90.7675 22.632L90.8955 29H88.3355L88.4955 19.048ZM108.708 15.592C108.046 15.784 107.065 16.008 105.764 16.264L105.7 16.392C106.169 17.1387 106.404 18.0453 106.404 19.112C106.404 20.6693 105.881 21.9067 104.836 22.824C103.812 23.7413 102.414 24.2 100.644 24.2C99.9395 24.2 99.2782 24.1147 98.6595 23.944C98.2968 24.2213 98.0515 24.4453 97.9235 24.616C97.7955 24.7867 97.7315 24.9787 97.7315 25.192C97.7315 25.64 98.0088 25.96 98.5635 26.152C99.1182 26.3227 100.025 26.504 101.284 26.696C102.521 26.8667 103.534 27.0587 104.324 27.272C105.113 27.4853 105.796 27.8373 106.372 28.328C106.948 28.7973 107.236 29.4587 107.236 30.312C107.236 31.208 106.926 32.0293 106.308 32.776C105.71 33.5227 104.878 34.1093 103.812 34.536C102.766 34.9627 101.614 35.176 100.356 35.176C98.6488 35.176 97.3155 34.7813 96.3555 33.992C95.4168 33.224 94.9475 32.2213 94.9475 30.984C95.4595 29.96 96.3982 29.032 97.7635 28.2V28.04C96.9955 27.8053 96.3982 27.496 95.9715 27.112C95.5662 26.7067 95.3635 26.1627 95.3635 25.48C95.8115 24.7333 96.4622 24.0827 97.3155 23.528V23.4C96.6328 22.9733 96.1102 22.4187 95.7475 21.736C95.4062 21.032 95.2355 20.2213 95.2355 19.304C95.2355 17.704 95.7475 16.456 96.7715 15.56C97.8168 14.6427 99.2035 14.184 100.932 14.184C102.062 14.184 103.022 14.376 103.812 14.76C105.284 14.4827 106.83 14.12 108.452 13.672L108.708 13.864V15.592ZM100.772 22.472C101.838 22.472 102.66 22.1733 103.236 21.576C103.833 20.9787 104.132 20.1467 104.132 19.08C104.132 18.056 103.854 17.2667 103.3 16.712C102.745 16.1573 101.945 15.88 100.9 15.88C99.8328 15.88 99.0008 16.168 98.4035 16.744C97.8062 17.32 97.5075 18.1413 97.5075 19.208C97.5075 20.232 97.7848 21.032 98.3395 21.608C98.9155 22.184 99.7262 22.472 100.772 22.472ZM104.996 30.792C104.996 30.088 104.633 29.5973 103.908 29.32C103.204 29.0427 102.126 28.7973 100.676 28.584L99.6515 28.424C98.8408 28.9147 98.2222 29.384 97.7955 29.832C97.3902 30.28 97.1875 30.7493 97.1875 31.24C97.1875 31.8587 97.4862 32.3707 98.0835 32.776C98.7022 33.1813 99.5555 33.384 100.644 33.384C101.881 33.384 102.916 33.128 103.748 32.616C104.58 32.1253 104.996 31.5173 104.996 30.792Z" fill="black"/>
<defs>
<clipPath id="clip0_60_5">
<rect width="31" height="31" fill="white" transform="translate(108.144 13.5184) rotate(-11.866)"/>
</clipPath>
</defs>
</svg>
