<svg width="277" height="126" viewBox="0 0 277 126" fill="none" xmlns="http://www.w3.org/2000/svg">
<g clip-path="url(#clip0_92_24)">
<rect width="277" height="126" fill="white"/>
<g clip-path="url(#clip1_92_24)">
<path d="M220.288 33.3178L259.25 25.1314C259.705 25.0356 260.166 24.969 260.63 24.9318C260.251 23.8898 259.665 22.9353 258.908 22.1258C258.15 21.3163 257.236 20.6686 256.222 20.2218C255.207 19.7749 254.112 19.5382 253.004 19.5259C251.895 19.5135 250.795 19.7258 249.771 20.1499L218.878 32.353L218.841 32.3607C216.911 33.1679 215.361 34.6817 214.509 36.5929C216.048 34.9262 218.068 33.7813 220.288 33.3178ZM259.864 28.0535L220.902 36.2399C218.837 36.6763 217.029 37.9142 215.875 39.682C214.721 41.4498 214.315 43.6032 214.747 45.6696L219.659 69.0468C220.095 71.1123 221.333 72.9203 223.101 74.0743C224.869 75.2282 227.022 75.6337 229.089 75.2019L268.051 67.0155C270.116 66.5791 271.924 65.3412 273.078 63.5734C274.232 61.8056 274.638 59.6522 274.206 57.5858L269.294 34.2086C268.858 32.1431 267.62 30.3351 265.852 29.1811C264.084 28.0272 261.931 27.6217 259.864 28.0535ZM258.993 52.6459C258.222 52.8078 257.421 52.7375 256.69 52.444C255.959 52.1505 255.332 51.647 254.888 50.997C254.443 50.347 254.201 49.5798 254.193 48.7925C254.185 48.0051 254.41 47.2329 254.84 46.5735C255.271 45.9141 255.887 45.3972 256.611 45.088C257.335 44.7789 258.135 44.6915 258.909 44.8368C259.683 44.9821 260.396 45.3536 260.959 45.9044C261.522 46.4551 261.908 47.1604 262.07 47.931C262.287 48.9644 262.085 50.0416 261.508 50.9258C260.931 51.81 260.026 52.4287 258.993 52.6459Z" fill="black"/>
<path d="M216.535 53.8754L213.989 41.7606C213.435 39.1222 213.967 34.3918 218.836 32.3681C222.971 30.6565 227.232 29.7611 227.232 29.7611C227.232 29.7611 230.442 31.1208 228.129 31.6068C225.815 32.0929 226.503 35.0631 228.756 34.5899C231.008 34.1166 229.357 37.4511 229.357 37.4511L222.448 49.6454L216.535 53.8754Z" fill="black"/>
</g>
<path d="M27.34 108.48C24.06 108.48 21.06 107.92 18.34 106.8C15.66 105.68 13.34 104.12 11.38 102.12C9.5 100.16 8 97.82 6.88 95.1C5.8 92.38 5.26 89.44 5.26 86.28C5.26 83.08 5.8 80.14 6.88 77.46C8 74.74 9.5 72.38 11.38 70.38C13.34 68.42 15.66 66.88 18.34 65.76C21.06 64.64 24.06 64.08 27.34 64.08C30.66 64.08 33.68 64.64 36.4 65.76C39.16 66.88 41.48 68.44 43.36 70.44C45.32 72.4 46.82 74.74 47.86 77.46C48.9 80.18 49.42 83.12 49.42 86.28C49.42 89.44 48.9 92.38 47.86 95.1C46.82 97.82 45.32 100.16 43.36 102.12C41.48 104.12 39.16 105.68 36.4 106.8C33.64 107.92 30.62 108.48 27.34 108.48ZM27.34 101.52C30.22 101.52 32.66 100.9 34.66 99.66C36.7 98.42 38.24 96.66 39.28 94.38C40.36 92.1 40.9 89.4 40.9 86.28C40.9 83.2 40.36 80.52 39.28 78.24C38.24 75.96 36.7 74.2 34.66 72.96C32.66 71.68 30.22 71.04 27.34 71.04C24.54 71.04 22.12 71.68 20.08 72.96C18.04 74.2 16.48 75.96 15.4 78.24C14.32 80.52 13.78 83.2 13.78 86.28C13.78 89.36 14.32 92.06 15.4 94.38C16.48 96.66 18.04 98.42 20.08 99.66C22.12 100.9 24.54 101.52 27.34 101.52ZM65.8792 108.48C63.6392 108.48 61.7392 107.98 60.1792 106.98C58.6192 105.94 57.4392 104.56 56.6392 102.84C55.8392 101.08 55.4392 99.06 55.4392 96.78V77.16H63.0592V96.78C63.0592 98.66 63.4792 100.12 64.3192 101.16C65.1592 102.16 66.4392 102.66 68.1592 102.66C69.4392 102.66 70.6192 102.38 71.6992 101.82C72.7792 101.26 73.8192 100.48 74.8192 99.48V77.16H82.3792V108H77.7592C76.7192 108 76.0792 107.54 75.8392 106.62L75.3592 104.22C74.0792 105.46 72.6792 106.48 71.1592 107.28C69.6392 108.08 67.8792 108.48 65.8792 108.48ZM80.9392 108L81.7192 101.94L85.1392 102.66C85.6992 102.78 86.1192 102.98 86.3992 103.26C86.7192 103.54 86.8792 103.96 86.8792 104.52V108H80.9392ZM56.8792 77.16L56.1592 83.22L52.6792 82.5C52.1592 82.38 51.7392 82.18 51.4192 81.9C51.0992 81.62 50.9392 81.2 50.9392 80.64V77.16H56.8792ZM76.2592 77.16L75.4792 83.22L72.0592 82.5C71.4992 82.38 71.0592 82.18 70.7392 81.9C70.4592 81.62 70.3192 81.2 70.3192 80.64V77.16H76.2592ZM101.526 108.48C98.8463 108.48 96.7663 107.72 95.2863 106.2C93.8463 104.68 93.1263 102.58 93.1263 99.9V82.74H90.0063C89.6063 82.74 89.2663 82.62 88.9863 82.38C88.7063 82.14 88.5663 81.76 88.5663 81.24V78.24L93.5463 77.4L95.1063 69.06C95.2663 68.22 95.8263 67.8 96.7863 67.8H100.686V77.46H108.786V82.74H100.686V99.42C100.686 100.38 100.926 101.14 101.406 101.7C101.886 102.22 102.526 102.48 103.326 102.48C103.766 102.48 104.166 102.4 104.526 102.24C104.886 102.04 105.226 101.86 105.546 101.7C105.866 101.54 106.146 101.46 106.386 101.46C106.746 101.46 107.066 101.68 107.346 102.12L109.626 105.78C108.546 106.62 107.306 107.28 105.906 107.76C104.506 108.24 103.046 108.48 101.526 108.48ZM126.236 108.48C123.596 108.48 121.216 107.82 119.096 106.5C117.016 105.14 115.356 103.28 114.116 100.92C112.916 98.52 112.316 95.72 112.316 92.52C112.316 89.44 112.896 86.72 114.056 84.36C115.216 81.96 116.916 80.08 119.156 78.72C121.396 77.36 124.136 76.68 127.376 76.68C128.896 76.68 130.476 76.88 132.116 77.28C133.796 77.64 135.456 78.18 137.096 78.9V83.28L133.256 83.76C132.456 83.28 131.636 82.94 130.796 82.74C129.996 82.5 129.016 82.38 127.856 82.38C126.096 82.38 124.636 82.8 123.476 83.64C122.356 84.48 121.516 85.66 120.956 87.18C120.436 88.7 120.176 90.48 120.176 92.52C120.176 95.72 120.816 98.24 122.096 100.08C123.416 101.88 125.256 102.78 127.616 102.78C128.896 102.78 129.976 102.56 130.856 102.12C131.736 101.64 132.496 101.16 133.136 100.68C133.776 100.2 134.356 99.96 134.876 99.96C135.196 99.96 135.456 100.02 135.656 100.14C135.896 100.26 136.096 100.42 136.256 100.62L138.416 103.38C136.776 105.3 134.896 106.64 132.776 107.4C130.656 108.12 128.476 108.48 126.236 108.48ZM131.756 81.96L137.096 83.28V87.96H134.336C133.776 87.96 133.356 87.8 133.076 87.48C132.796 87.16 132.596 86.74 132.476 86.22L131.756 81.96ZM156.505 76.68C159.625 76.68 162.325 77.34 164.605 78.66C166.885 79.94 168.645 81.78 169.885 84.18C171.125 86.54 171.745 89.32 171.745 92.52C171.745 95.72 171.125 98.52 169.885 100.92C168.645 103.28 166.885 105.14 164.605 106.5C162.325 107.82 159.625 108.48 156.505 108.48C153.425 108.48 150.725 107.82 148.405 106.5C146.125 105.14 144.345 103.28 143.065 100.92C141.785 98.52 141.145 95.72 141.145 92.52C141.145 89.32 141.785 86.54 143.065 84.18C144.345 81.78 146.125 79.94 148.405 78.66C150.725 77.34 153.425 76.68 156.505 76.68ZM156.505 102.72C159.025 102.72 160.885 101.86 162.085 100.14C163.285 98.42 163.885 95.9 163.885 92.58C163.885 90.34 163.625 88.48 163.105 87C162.585 85.48 161.765 84.34 160.645 83.58C159.565 82.82 158.185 82.44 156.505 82.44C154.825 82.44 153.425 82.84 152.305 83.64C151.185 84.4 150.345 85.54 149.785 87.06C149.265 88.54 149.005 90.38 149.005 92.58C149.005 95.82 149.605 98.32 150.805 100.08C152.045 101.84 153.945 102.72 156.505 102.72ZM179.397 108V77.16H184.017C185.017 77.16 185.657 77.62 185.937 78.54L186.417 80.82C187.497 79.66 188.697 78.68 190.017 77.88C191.337 77.08 192.897 76.68 194.697 76.68C196.657 76.68 198.257 77.22 199.497 78.3C200.737 79.34 201.657 80.72 202.257 82.44C203.217 80.44 204.597 78.98 206.397 78.06C208.197 77.14 210.117 76.68 212.157 76.68C215.597 76.68 218.217 77.72 220.017 79.8C221.857 81.88 222.777 84.74 222.777 88.38V108H215.217V88.38C215.217 86.46 214.797 85 213.957 84C213.117 83 211.857 82.5 210.177 82.5C208.697 82.5 207.437 83.02 206.397 84.06C205.397 85.1 204.897 86.54 204.897 88.38V108H197.277V88.38C197.277 86.34 196.857 84.86 196.017 83.94C195.217 82.98 194.037 82.5 192.477 82.5C191.397 82.5 190.397 82.78 189.477 83.34C188.597 83.86 187.757 84.56 186.957 85.44V108H179.397ZM174.897 108V104.52C174.897 103.96 175.037 103.54 175.317 103.26C175.637 102.98 176.077 102.78 176.637 102.66L180.057 101.94L180.837 108H174.897ZM185.517 108L186.297 101.94L189.717 102.66C190.277 102.78 190.697 102.98 190.977 103.26C191.297 103.54 191.457 103.96 191.457 104.52V108H185.517ZM203.457 108L204.177 101.94L207.657 102.66C208.177 102.78 208.597 102.98 208.917 103.26C209.237 103.54 209.397 103.96 209.397 104.52V108H203.457ZM180.837 77.16L180.057 83.22L176.637 82.5C176.077 82.38 175.637 82.18 175.317 81.9C175.037 81.62 174.897 81.2 174.897 80.64V77.16H180.837ZM221.337 108L222.117 101.94L225.537 102.66C226.097 102.78 226.517 102.98 226.797 103.26C227.117 103.54 227.277 103.96 227.277 104.52V108H221.337ZM245.037 108.48C241.957 108.48 239.277 107.8 236.997 106.44C234.717 105.04 232.937 103.1 231.657 100.62C230.417 98.1 229.797 95.2 229.797 91.92C229.797 89.04 230.417 86.46 231.657 84.18C232.897 81.86 234.637 80.04 236.877 78.72C239.117 77.36 241.717 76.68 244.677 76.68C247.357 76.68 249.697 77.26 251.697 78.42C253.737 79.54 255.297 81.14 256.377 83.22C257.497 85.3 258.057 87.78 258.057 90.66C258.057 91.74 257.957 92.5 257.757 92.94C257.557 93.34 257.077 93.54 256.317 93.54H237.417C237.417 93.66 237.417 93.78 237.417 93.9C237.417 94.02 237.437 94.14 237.477 94.26C237.797 97.06 238.657 99.16 240.057 100.56C241.497 101.96 243.377 102.66 245.697 102.66C246.777 102.66 247.857 102.44 248.937 102C250.057 101.56 251.077 101.12 251.997 100.68C252.917 100.2 253.657 99.96 254.217 99.96C254.777 99.96 255.237 100.18 255.597 100.62L257.817 103.38C256.737 104.62 255.477 105.62 254.037 106.38C252.637 107.14 251.157 107.68 249.597 108C248.077 108.32 246.557 108.48 245.037 108.48ZM237.537 89.04H251.277C251.277 87.04 250.737 85.38 249.657 84.06C248.577 82.74 246.977 82.08 244.857 82.08C242.737 82.08 241.057 82.68 239.817 83.88C238.617 85.08 237.857 86.8 237.537 89.04Z" fill="black"/>
<path d="M28.78 50.4L28.36 54H9.4L9.7 42.42L9.4 15.54H14.32L14.02 42L14.2 49.98H28.42L28.78 50.4ZM35.1006 40.08V40.2C35.1006 43.56 35.8606 46.14 37.3806 47.94C38.9006 49.74 41.0606 50.64 43.8606 50.64C45.2606 50.64 46.6606 50.42 48.0606 49.98C49.4606 49.5 50.7406 48.84 51.9006 48L52.3806 48.36L51.6606 52.44C48.8606 53.8 46.0606 54.48 43.2606 54.48C39.3406 54.48 36.2606 53.24 34.0206 50.76C31.7806 48.24 30.6606 44.8 30.6606 40.44C30.6606 36.04 31.7806 32.54 34.0206 29.94C36.2606 27.34 39.2806 26.04 43.0806 26.04C46.2806 26.04 48.7606 26.96 50.5206 28.8C52.2806 30.6 53.1606 33.12 53.1606 36.36C53.1606 37.44 53.0806 38.46 52.9206 39.42L52.3206 40.02L35.1006 40.08ZM43.0806 29.4C41.0806 29.4 39.4006 30.06 38.0406 31.38C36.7206 32.66 35.8406 34.48 35.4006 36.84L48.6606 36.6L48.7806 35.76C48.7806 33.72 48.2806 32.16 47.2806 31.08C46.3206 29.96 44.9206 29.4 43.0806 29.4ZM69.6569 26.04C72.2569 26.04 74.2969 26.68 75.7769 27.96C77.2969 29.24 78.0569 31 78.0569 33.24C78.0569 33.92 77.9369 36.38 77.6969 40.62C77.4569 44.86 77.3369 47.34 77.3369 48.06C77.3369 48.94 77.4769 49.56 77.7569 49.92C78.0369 50.24 78.5169 50.4 79.1969 50.4C79.7969 50.4 80.4769 50.28 81.2369 50.04L81.7169 50.46L81.2369 53.16C80.0769 53.84 78.9369 54.24 77.8169 54.36C76.5769 54.24 75.5769 53.8 74.8169 53.04C74.0969 52.28 73.7169 51.24 73.6769 49.92H73.2569C71.0969 52.12 68.9569 53.62 66.8369 54.42C64.1569 54.42 62.0569 53.76 60.5369 52.44C59.0569 51.08 58.3169 49.24 58.3169 46.92C58.3169 45.16 58.7769 43.76 59.6969 42.72C60.6569 41.68 62.0569 40.94 63.8969 40.5L73.6169 38.22L73.6769 34.32C73.6769 32.76 73.2569 31.56 72.4169 30.72C71.6169 29.88 70.4569 29.46 68.9369 29.46C67.5769 29.46 66.2169 29.78 64.8569 30.42C63.4969 31.06 62.0369 32.06 60.4769 33.42L59.9969 33.18L59.3969 29.76C62.7169 27.28 66.1369 26.04 69.6569 26.04ZM64.8569 43.38C64.0569 43.62 63.4769 43.96 63.1169 44.4C62.7569 44.8 62.5769 45.42 62.5769 46.26C62.5769 47.58 62.9369 48.62 63.6569 49.38C64.4169 50.1 65.4169 50.46 66.6569 50.46C68.8569 50.46 71.0969 49.04 73.3769 46.2L73.5569 41.28L64.8569 43.38ZM100.326 26.46C100.806 26.46 101.326 26.5 101.886 26.58V31.2L101.346 31.38C100.666 31.18 99.9258 31.08 99.1258 31.08C97.8058 31.08 96.5858 31.62 95.4658 32.7C94.3858 33.74 93.3058 35.42 92.2258 37.74L92.1658 41.94L92.4658 54H87.7258L88.0258 42.36L87.7858 26.82L92.2858 26.4L92.2258 32.04H92.5858C93.7058 30.04 94.9458 28.62 96.3058 27.78C97.6658 26.9 99.0058 26.46 100.326 26.46ZM124.46 35.34C124.5 33.7 124.12 32.42 123.32 31.5C122.52 30.58 121.34 30.12 119.78 30.12C117.26 30.12 114.54 31.54 111.62 34.38V41.94L111.86 54H107.12L107.42 42.36L107.18 26.82L111.68 26.4V30.42H112.04C114.52 28.22 117.06 26.8 119.66 26.16C122.66 26.16 124.94 26.86 126.5 28.26C128.1 29.66 128.88 31.66 128.84 34.26L128.72 42.06L128.96 54H124.16L124.46 35.34ZM138.358 42.36L138.178 26.82L142.798 26.4L142.678 41.94L142.798 54H138.118L138.358 42.36ZM140.578 14.22C141.378 14.22 142.018 14.46 142.498 14.94C142.978 15.42 143.218 16.08 143.218 16.92C143.218 17.8 142.958 18.5 142.438 19.02C141.958 19.54 141.278 19.8 140.398 19.8C139.558 19.8 138.898 19.56 138.418 19.08C137.978 18.6 137.758 17.92 137.758 17.04C137.758 16.2 137.998 15.52 138.478 15C138.998 14.48 139.698 14.22 140.578 14.22ZM169.929 35.34C169.969 33.7 169.589 32.42 168.789 31.5C167.989 30.58 166.809 30.12 165.249 30.12C162.729 30.12 160.009 31.54 157.089 34.38V41.94L157.329 54H152.589L152.889 42.36L152.649 26.82L157.149 26.4V30.42H157.509C159.989 28.22 162.529 26.8 165.129 26.16C168.129 26.16 170.409 26.86 171.969 28.26C173.569 29.66 174.349 31.66 174.309 34.26L174.189 42.06L174.429 54H169.629L169.929 35.34ZM207.827 28.86C206.587 29.22 204.747 29.64 202.307 30.12L202.187 30.36C203.067 31.76 203.507 33.46 203.507 35.46C203.507 38.38 202.527 40.7 200.567 42.42C198.647 44.14 196.027 45 192.707 45C191.387 45 190.147 44.84 188.987 44.52C188.307 45.04 187.847 45.46 187.607 45.78C187.367 46.1 187.247 46.46 187.247 46.86C187.247 47.7 187.767 48.3 188.807 48.66C189.847 48.98 191.547 49.32 193.907 49.68C196.227 50 198.127 50.36 199.607 50.76C201.087 51.16 202.367 51.82 203.447 52.74C204.527 53.62 205.067 54.86 205.067 56.46C205.067 58.14 204.487 59.68 203.327 61.08C202.207 62.48 200.647 63.58 198.647 64.38C196.687 65.18 194.527 65.58 192.167 65.58C188.967 65.58 186.467 64.84 184.667 63.36C182.907 61.92 182.027 60.04 182.027 57.72C182.987 55.8 184.747 54.06 187.307 52.5V52.2C185.867 51.76 184.747 51.18 183.947 50.46C183.187 49.7 182.807 48.68 182.807 47.4C183.647 46 184.867 44.78 186.467 43.74V43.5C185.187 42.7 184.207 41.66 183.527 40.38C182.887 39.06 182.567 37.54 182.567 35.82C182.567 32.82 183.527 30.48 185.447 28.8C187.407 27.08 190.007 26.22 193.247 26.22C195.367 26.22 197.167 26.58 198.647 27.3C201.407 26.78 204.307 26.1 207.347 25.26L207.827 25.62V28.86ZM192.947 41.76C194.947 41.76 196.487 41.2 197.567 40.08C198.687 38.96 199.247 37.4 199.247 35.4C199.247 33.48 198.727 32 197.687 30.96C196.647 29.92 195.147 29.4 193.187 29.4C191.187 29.4 189.627 29.94 188.507 31.02C187.387 32.1 186.827 33.64 186.827 35.64C186.827 37.56 187.347 39.06 188.387 40.14C189.467 41.22 190.987 41.76 192.947 41.76ZM200.867 57.36C200.867 56.04 200.187 55.12 198.827 54.6C197.507 54.08 195.487 53.62 192.767 53.22L190.847 52.92C189.327 53.84 188.167 54.72 187.367 55.56C186.607 56.4 186.227 57.28 186.227 58.2C186.227 59.36 186.787 60.32 187.907 61.08C189.067 61.84 190.667 62.22 192.707 62.22C195.027 62.22 196.967 61.74 198.527 60.78C200.087 59.86 200.867 58.72 200.867 57.36Z" fill="black"/>
</g>
<defs>
<clipPath id="clip0_92_24">
<rect width="277" height="126" fill="white"/>
</clipPath>
<clipPath id="clip1_92_24">
<rect width="63.7003" height="63.7003" fill="white" transform="translate(206 23.0983) rotate(-11.866)"/>
</clipPath>
</defs>
</svg>
